<svg width="108" height="86" viewBox="0 0 108 86" fill="none" xmlns="http://www.w3.org/2000/svg">
<rect width="108" height="86" fill="#1E1E1E"/>
<g id="Desktop - 1">
<rect width="1440" height="1024" transform="translate(-665 -619)" fill="white"/>
<rect id="Rectangle 1" width="846" height="716" rx="84" transform="matrix(1 0 0 -1 -369 255)" fill="#F4F4F4"/>
<g id="page-not-found-svgrepo-com 1">
<path id="Vector" fill-rule="evenodd" clip-rule="evenodd" d="M0.783867 77.9963L16.5772 0.457001L80.5511 5.35094L107.621 29.0538L95.8984 85.5618L0.783867 77.9963ZM67.64 32.0123L74.6583 10.0509L23.9513 6.58778L9.58518 73.0311L88.52 79.5884L98.0575 34.7898L67.64 32.0123ZM32.2977 61.294C31.7481 60.8032 26.8729 58.0327 25.9559 57.1758C38.9297 47.3691 70.6097 47.4908 79.4081 60.4648C77.9429 60.8319 71.397 62.7555 70.1141 63.2452C66.4431 56.0053 44.9435 53.7216 32.2977 61.294ZM56.6912 34.483L51.3466 37.214L43.3063 30.6419L32.3619 34.6295L27.9459 29.6138L37.9019 26.2229L31.3034 20.8283L39.3219 17.187L45.722 23.5582L57.1213 19.6746L60.5561 24.3558L50.2823 28.0989L56.6912 34.483Z" fill="black"/>
</g>
</g>
</svg>
